<?xml version="1.0" encoding="utf-8" standalone="no"?>
<!DOCTYPE svg PUBLIC "-//W3C//DTD SVG 1.1//EN"
  "http://www.w3.org/Graphics/SVG/1.1/DTD/svg11.dtd">
<svg xmlns:xlink="http://www.w3.org/1999/xlink" width="460.8pt" height="345.6pt" viewBox="0 0 460.8 345.6" xmlns="http://www.w3.org/2000/svg" version="1.1">
 <metadata>
  <rdf:RDF xmlns:dc="http://purl.org/dc/elements/1.1/" xmlns:cc="http://creativecommons.org/ns#" xmlns:rdf="http://www.w3.org/1999/02/22-rdf-syntax-ns#">
   <cc:Work>
    <dc:type rdf:resource="http://purl.org/dc/dcmitype/StillImage"/>
    <dc:date>2025-10-02T11:59:49.566477</dc:date>
    <dc:format>image/svg+xml</dc:format>
    <dc:creator>
     <cc:Agent>
      <dc:title>Matplotlib v3.10.6, https://matplotlib.org/</dc:title>
     </cc:Agent>
    </dc:creator>
   </cc:Work>
  </rdf:RDF>
 </metadata>
 <defs>
  <style type="text/css">*{stroke-linejoin: round; stroke-linecap: butt}</style>
 </defs>
 <g id="figure_1">
  <g id="patch_1">
   <path d="M 0 345.6 
L 460.8 345.6 
L 460.8 0 
L 0 0 
z
" style="fill: #ffffff"/>
  </g>
  <g id="axes_1">
   <g id="patch_2">
    <path d="M 57.6 307.584 
L 414.72 307.584 
L 414.72 41.472 
L 57.6 41.472 
z
" style="fill: #ffffff"/>
   </g>
   <g id="matplotlib.axis_1">
    <g id="xtick_1">
     <g id="line2d_1">
      <defs>
       <path id="m7531fe6f1a" d="M 0 0 
L 0 3.5 
" style="stroke: #000000; stroke-width: 0.8"/>
      </defs>
      <g>
       <use xlink:href="#m7531fe6f1a" x="57.6" y="307.584" style="stroke: #000000; stroke-width: 0.8"/>
      </g>
     </g>
     <g id="text_1">
      <!-- 0 -->
      <g transform="translate(54.41875 322.182437) scale(0.1 -0.1)">
       <defs>
        <path id="DejaVuSans-30" d="M 2034 4250 
Q 1547 4250 1301 3770 
Q 1056 3291 1056 2328 
Q 1056 1369 1301 889 
Q 1547 409 2034 409 
Q 2525 409 2770 889 
Q 3016 1369 3016 2328 
Q 3016 3291 2770 3770 
Q 2525 4250 2034 4250 
z
M 2034 4750 
Q 2819 4750 3233 4129 
Q 3647 3509 3647 2328 
Q 3647 1150 3233 529 
Q 2819 -91 2034 -91 
Q 1250 -91 836 529 
Q 422 1150 422 2328 
Q 422 3509 836 4129 
Q 1250 4750 2034 4750 
z
" transform="scale(0.015625)"/>
       </defs>
       <use xlink:href="#DejaVuSans-30"/>
      </g>
     </g>
    </g>
    <g id="xtick_2">
     <g id="line2d_2">
      <g>
       <use xlink:href="#m7531fe6f1a" x="127.35" y="307.584" style="stroke: #000000; stroke-width: 0.8"/>
      </g>
     </g>
     <g id="text_2">
      <!-- 50 -->
      <g transform="translate(120.9875 322.182437) scale(0.1 -0.1)">
       <defs>
        <path id="DejaVuSans-35" d="M 691 4666 
L 3169 4666 
L 3169 4134 
L 1269 4134 
L 1269 2991 
Q 1406 3038 1543 3061 
Q 1681 3084 1819 3084 
Q 2600 3084 3056 2656 
Q 3513 2228 3513 1497 
Q 3513 744 3044 326 
Q 2575 -91 1722 -91 
Q 1428 -91 1123 -41 
Q 819 9 494 109 
L 494 744 
Q 775 591 1075 516 
Q 1375 441 1709 441 
Q 2250 441 2565 725 
Q 2881 1009 2881 1497 
Q 2881 1984 2565 2268 
Q 2250 2553 1709 2553 
Q 1456 2553 1204 2497 
Q 953 2441 691 2322 
L 691 4666 
z
" transform="scale(0.015625)"/>
       </defs>
       <use xlink:href="#DejaVuSans-35"/>
       <use xlink:href="#DejaVuSans-30" transform="translate(63.623047 0)"/>
      </g>
     </g>
    </g>
    <g id="xtick_3">
     <g id="line2d_3">
      <g>
       <use xlink:href="#m7531fe6f1a" x="197.1" y="307.584" style="stroke: #000000; stroke-width: 0.8"/>
      </g>
     </g>
     <g id="text_3">
      <!-- 100 -->
      <g transform="translate(187.55625 322.182437) scale(0.1 -0.1)">
       <defs>
        <path id="DejaVuSans-31" d="M 794 531 
L 1825 531 
L 1825 4091 
L 703 3866 
L 703 4441 
L 1819 4666 
L 2450 4666 
L 2450 531 
L 3481 531 
L 3481 0 
L 794 0 
L 794 531 
z
" transform="scale(0.015625)"/>
       </defs>
       <use xlink:href="#DejaVuSans-31"/>
       <use xlink:href="#DejaVuSans-30" transform="translate(63.623047 0)"/>
       <use xlink:href="#DejaVuSans-30" transform="translate(127.246094 0)"/>
      </g>
     </g>
    </g>
    <g id="xtick_4">
     <g id="line2d_4">
      <g>
       <use xlink:href="#m7531fe6f1a" x="266.85" y="307.584" style="stroke: #000000; stroke-width: 0.8"/>
      </g>
     </g>
     <g id="text_4">
      <!-- 150 -->
      <g transform="translate(257.30625 322.182437) scale(0.1 -0.1)">
       <use xlink:href="#DejaVuSans-31"/>
       <use xlink:href="#DejaVuSans-35" transform="translate(63.623047 0)"/>
       <use xlink:href="#DejaVuSans-30" transform="translate(127.246094 0)"/>
      </g>
     </g>
    </g>
    <g id="xtick_5">
     <g id="line2d_5">
      <g>
       <use xlink:href="#m7531fe6f1a" x="336.6" y="307.584" style="stroke: #000000; stroke-width: 0.8"/>
      </g>
     </g>
     <g id="text_5">
      <!-- 200 -->
      <g transform="translate(327.05625 322.182437) scale(0.1 -0.1)">
       <defs>
        <path id="DejaVuSans-32" d="M 1228 531 
L 3431 531 
L 3431 0 
L 469 0 
L 469 531 
Q 828 903 1448 1529 
Q 2069 2156 2228 2338 
Q 2531 2678 2651 2914 
Q 2772 3150 2772 3378 
Q 2772 3750 2511 3984 
Q 2250 4219 1831 4219 
Q 1534 4219 1204 4116 
Q 875 4013 500 3803 
L 500 4441 
Q 881 4594 1212 4672 
Q 1544 4750 1819 4750 
Q 2544 4750 2975 4387 
Q 3406 4025 3406 3419 
Q 3406 3131 3298 2873 
Q 3191 2616 2906 2266 
Q 2828 2175 2409 1742 
Q 1991 1309 1228 531 
z
" transform="scale(0.015625)"/>
       </defs>
       <use xlink:href="#DejaVuSans-32"/>
       <use xlink:href="#DejaVuSans-30" transform="translate(63.623047 0)"/>
       <use xlink:href="#DejaVuSans-30" transform="translate(127.246094 0)"/>
      </g>
     </g>
    </g>
    <g id="xtick_6">
     <g id="line2d_6">
      <g>
       <use xlink:href="#m7531fe6f1a" x="406.35" y="307.584" style="stroke: #000000; stroke-width: 0.8"/>
      </g>
     </g>
     <g id="text_6">
      <!-- 250 -->
      <g transform="translate(396.80625 322.182437) scale(0.1 -0.1)">
       <use xlink:href="#DejaVuSans-32"/>
       <use xlink:href="#DejaVuSans-35" transform="translate(63.623047 0)"/>
       <use xlink:href="#DejaVuSans-30" transform="translate(127.246094 0)"/>
      </g>
     </g>
    </g>
    <g id="text_7">
     <!-- Bins -->
     <g transform="translate(225.567031 335.860562) scale(0.1 -0.1)">
      <defs>
       <path id="DejaVuSans-42" d="M 1259 2228 
L 1259 519 
L 2272 519 
Q 2781 519 3026 730 
Q 3272 941 3272 1375 
Q 3272 1813 3026 2020 
Q 2781 2228 2272 2228 
L 1259 2228 
z
M 1259 4147 
L 1259 2741 
L 2194 2741 
Q 2656 2741 2882 2914 
Q 3109 3088 3109 3444 
Q 3109 3797 2882 3972 
Q 2656 4147 2194 4147 
L 1259 4147 
z
M 628 4666 
L 2241 4666 
Q 2963 4666 3353 4366 
Q 3744 4066 3744 3513 
Q 3744 3084 3544 2831 
Q 3344 2578 2956 2516 
Q 3422 2416 3680 2098 
Q 3938 1781 3938 1306 
Q 3938 681 3513 340 
Q 3088 0 2303 0 
L 628 0 
L 628 4666 
z
" transform="scale(0.015625)"/>
       <path id="DejaVuSans-69" d="M 603 3500 
L 1178 3500 
L 1178 0 
L 603 0 
L 603 3500 
z
M 603 4863 
L 1178 4863 
L 1178 4134 
L 603 4134 
L 603 4863 
z
" transform="scale(0.015625)"/>
       <path id="DejaVuSans-6e" d="M 3513 2113 
L 3513 0 
L 2938 0 
L 2938 2094 
Q 2938 2591 2744 2837 
Q 2550 3084 2163 3084 
Q 1697 3084 1428 2787 
Q 1159 2491 1159 1978 
L 1159 0 
L 581 0 
L 581 3500 
L 1159 3500 
L 1159 2956 
Q 1366 3272 1645 3428 
Q 1925 3584 2291 3584 
Q 2894 3584 3203 3211 
Q 3513 2838 3513 2113 
z
" transform="scale(0.015625)"/>
       <path id="DejaVuSans-73" d="M 2834 3397 
L 2834 2853 
Q 2591 2978 2328 3040 
Q 2066 3103 1784 3103 
Q 1356 3103 1142 2972 
Q 928 2841 928 2578 
Q 928 2378 1081 2264 
Q 1234 2150 1697 2047 
L 1894 2003 
Q 2506 1872 2764 1633 
Q 3022 1394 3022 966 
Q 3022 478 2636 193 
Q 2250 -91 1575 -91 
Q 1294 -91 989 -36 
Q 684 19 347 128 
L 347 722 
Q 666 556 975 473 
Q 1284 391 1588 391 
Q 1994 391 2212 530 
Q 2431 669 2431 922 
Q 2431 1156 2273 1281 
Q 2116 1406 1581 1522 
L 1381 1569 
Q 847 1681 609 1914 
Q 372 2147 372 2553 
Q 372 3047 722 3315 
Q 1072 3584 1716 3584 
Q 2034 3584 2315 3537 
Q 2597 3491 2834 3397 
z
" transform="scale(0.015625)"/>
      </defs>
      <use xlink:href="#DejaVuSans-42"/>
      <use xlink:href="#DejaVuSans-69" transform="translate(68.603516 0)"/>
      <use xlink:href="#DejaVuSans-6e" transform="translate(96.386719 0)"/>
      <use xlink:href="#DejaVuSans-73" transform="translate(159.765625 0)"/>
     </g>
    </g>
   </g>
   <g id="matplotlib.axis_2">
    <g id="ytick_1">
     <g id="line2d_7">
      <defs>
       <path id="m576ad3fbf7" d="M 0 0 
L -3.5 0 
" style="stroke: #000000; stroke-width: 0.8"/>
      </defs>
      <g>
       <use xlink:href="#m576ad3fbf7" x="57.6" y="295.488" style="stroke: #000000; stroke-width: 0.8"/>
      </g>
     </g>
     <g id="text_8">
      <!-- 0.0 -->
      <g transform="translate(34.696875 299.287219) scale(0.1 -0.1)">
       <defs>
        <path id="DejaVuSans-2e" d="M 684 794 
L 1344 794 
L 1344 0 
L 684 0 
L 684 794 
z
" transform="scale(0.015625)"/>
       </defs>
       <use xlink:href="#DejaVuSans-30"/>
       <use xlink:href="#DejaVuSans-2e" transform="translate(63.623047 0)"/>
       <use xlink:href="#DejaVuSans-30" transform="translate(95.410156 0)"/>
      </g>
     </g>
    </g>
    <g id="ytick_2">
     <g id="line2d_8">
      <g>
       <use xlink:href="#m576ad3fbf7" x="57.6" y="247.104" style="stroke: #000000; stroke-width: 0.8"/>
      </g>
     </g>
     <g id="text_9">
      <!-- 0.2 -->
      <g transform="translate(34.696875 250.903219) scale(0.1 -0.1)">
       <use xlink:href="#DejaVuSans-30"/>
       <use xlink:href="#DejaVuSans-2e" transform="translate(63.623047 0)"/>
       <use xlink:href="#DejaVuSans-32" transform="translate(95.410156 0)"/>
      </g>
     </g>
    </g>
    <g id="ytick_3">
     <g id="line2d_9">
      <g>
       <use xlink:href="#m576ad3fbf7" x="57.6" y="198.72" style="stroke: #000000; stroke-width: 0.8"/>
      </g>
     </g>
     <g id="text_10">
      <!-- 0.4 -->
      <g transform="translate(34.696875 202.519219) scale(0.1 -0.1)">
       <defs>
        <path id="DejaVuSans-34" d="M 2419 4116 
L 825 1625 
L 2419 1625 
L 2419 4116 
z
M 2253 4666 
L 3047 4666 
L 3047 1625 
L 3713 1625 
L 3713 1100 
L 3047 1100 
L 3047 0 
L 2419 0 
L 2419 1100 
L 313 1100 
L 313 1709 
L 2253 4666 
z
" transform="scale(0.015625)"/>
       </defs>
       <use xlink:href="#DejaVuSans-30"/>
       <use xlink:href="#DejaVuSans-2e" transform="translate(63.623047 0)"/>
       <use xlink:href="#DejaVuSans-34" transform="translate(95.410156 0)"/>
      </g>
     </g>
    </g>
    <g id="ytick_4">
     <g id="line2d_10">
      <g>
       <use xlink:href="#m576ad3fbf7" x="57.6" y="150.336" style="stroke: #000000; stroke-width: 0.8"/>
      </g>
     </g>
     <g id="text_11">
      <!-- 0.6 -->
      <g transform="translate(34.696875 154.135219) scale(0.1 -0.1)">
       <defs>
        <path id="DejaVuSans-36" d="M 2113 2584 
Q 1688 2584 1439 2293 
Q 1191 2003 1191 1497 
Q 1191 994 1439 701 
Q 1688 409 2113 409 
Q 2538 409 2786 701 
Q 3034 994 3034 1497 
Q 3034 2003 2786 2293 
Q 2538 2584 2113 2584 
z
M 3366 4563 
L 3366 3988 
Q 3128 4100 2886 4159 
Q 2644 4219 2406 4219 
Q 1781 4219 1451 3797 
Q 1122 3375 1075 2522 
Q 1259 2794 1537 2939 
Q 1816 3084 2150 3084 
Q 2853 3084 3261 2657 
Q 3669 2231 3669 1497 
Q 3669 778 3244 343 
Q 2819 -91 2113 -91 
Q 1303 -91 875 529 
Q 447 1150 447 2328 
Q 447 3434 972 4092 
Q 1497 4750 2381 4750 
Q 2619 4750 2861 4703 
Q 3103 4656 3366 4563 
z
" transform="scale(0.015625)"/>
       </defs>
       <use xlink:href="#DejaVuSans-30"/>
       <use xlink:href="#DejaVuSans-2e" transform="translate(63.623047 0)"/>
       <use xlink:href="#DejaVuSans-36" transform="translate(95.410156 0)"/>
      </g>
     </g>
    </g>
    <g id="ytick_5">
     <g id="line2d_11">
      <g>
       <use xlink:href="#m576ad3fbf7" x="57.6" y="101.952" style="stroke: #000000; stroke-width: 0.8"/>
      </g>
     </g>
     <g id="text_12">
      <!-- 0.8 -->
      <g transform="translate(34.696875 105.751219) scale(0.1 -0.1)">
       <defs>
        <path id="DejaVuSans-38" d="M 2034 2216 
Q 1584 2216 1326 1975 
Q 1069 1734 1069 1313 
Q 1069 891 1326 650 
Q 1584 409 2034 409 
Q 2484 409 2743 651 
Q 3003 894 3003 1313 
Q 3003 1734 2745 1975 
Q 2488 2216 2034 2216 
z
M 1403 2484 
Q 997 2584 770 2862 
Q 544 3141 544 3541 
Q 544 4100 942 4425 
Q 1341 4750 2034 4750 
Q 2731 4750 3128 4425 
Q 3525 4100 3525 3541 
Q 3525 3141 3298 2862 
Q 3072 2584 2669 2484 
Q 3125 2378 3379 2068 
Q 3634 1759 3634 1313 
Q 3634 634 3220 271 
Q 2806 -91 2034 -91 
Q 1263 -91 848 271 
Q 434 634 434 1313 
Q 434 1759 690 2068 
Q 947 2378 1403 2484 
z
M 1172 3481 
Q 1172 3119 1398 2916 
Q 1625 2713 2034 2713 
Q 2441 2713 2670 2916 
Q 2900 3119 2900 3481 
Q 2900 3844 2670 4047 
Q 2441 4250 2034 4250 
Q 1625 4250 1398 4047 
Q 1172 3844 1172 3481 
z
" transform="scale(0.015625)"/>
       </defs>
       <use xlink:href="#DejaVuSans-30"/>
       <use xlink:href="#DejaVuSans-2e" transform="translate(63.623047 0)"/>
       <use xlink:href="#DejaVuSans-38" transform="translate(95.410156 0)"/>
      </g>
     </g>
    </g>
    <g id="ytick_6">
     <g id="line2d_12">
      <g>
       <use xlink:href="#m576ad3fbf7" x="57.6" y="53.568" style="stroke: #000000; stroke-width: 0.8"/>
      </g>
     </g>
     <g id="text_13">
      <!-- 1.0 -->
      <g transform="translate(34.696875 57.367219) scale(0.1 -0.1)">
       <use xlink:href="#DejaVuSans-31"/>
       <use xlink:href="#DejaVuSans-2e" transform="translate(63.623047 0)"/>
       <use xlink:href="#DejaVuSans-30" transform="translate(95.410156 0)"/>
      </g>
     </g>
    </g>
    <g id="text_14">
     <!-- # of pixels -->
     <g transform="translate(28.617187 201.152219) rotate(-90) scale(0.1 -0.1)">
      <defs>
       <path id="DejaVuSans-23" d="M 3272 2816 
L 2363 2816 
L 2100 1772 
L 3016 1772 
L 3272 2816 
z
M 2803 4594 
L 2478 3297 
L 3391 3297 
L 3719 4594 
L 4219 4594 
L 3897 3297 
L 4872 3297 
L 4872 2816 
L 3775 2816 
L 3519 1772 
L 4513 1772 
L 4513 1294 
L 3397 1294 
L 3072 0 
L 2572 0 
L 2894 1294 
L 1978 1294 
L 1656 0 
L 1153 0 
L 1478 1294 
L 494 1294 
L 494 1772 
L 1594 1772 
L 1856 2816 
L 850 2816 
L 850 3297 
L 1978 3297 
L 2297 4594 
L 2803 4594 
z
" transform="scale(0.015625)"/>
       <path id="DejaVuSans-20" transform="scale(0.015625)"/>
       <path id="DejaVuSans-6f" d="M 1959 3097 
Q 1497 3097 1228 2736 
Q 959 2375 959 1747 
Q 959 1119 1226 758 
Q 1494 397 1959 397 
Q 2419 397 2687 759 
Q 2956 1122 2956 1747 
Q 2956 2369 2687 2733 
Q 2419 3097 1959 3097 
z
M 1959 3584 
Q 2709 3584 3137 3096 
Q 3566 2609 3566 1747 
Q 3566 888 3137 398 
Q 2709 -91 1959 -91 
Q 1206 -91 779 398 
Q 353 888 353 1747 
Q 353 2609 779 3096 
Q 1206 3584 1959 3584 
z
" transform="scale(0.015625)"/>
       <path id="DejaVuSans-66" d="M 2375 4863 
L 2375 4384 
L 1825 4384 
Q 1516 4384 1395 4259 
Q 1275 4134 1275 3809 
L 1275 3500 
L 2222 3500 
L 2222 3053 
L 1275 3053 
L 1275 0 
L 697 0 
L 697 3053 
L 147 3053 
L 147 3500 
L 697 3500 
L 697 3744 
Q 697 4328 969 4595 
Q 1241 4863 1831 4863 
L 2375 4863 
z
" transform="scale(0.015625)"/>
       <path id="DejaVuSans-70" d="M 1159 525 
L 1159 -1331 
L 581 -1331 
L 581 3500 
L 1159 3500 
L 1159 2969 
Q 1341 3281 1617 3432 
Q 1894 3584 2278 3584 
Q 2916 3584 3314 3078 
Q 3713 2572 3713 1747 
Q 3713 922 3314 415 
Q 2916 -91 2278 -91 
Q 1894 -91 1617 61 
Q 1341 213 1159 525 
z
M 3116 1747 
Q 3116 2381 2855 2742 
Q 2594 3103 2138 3103 
Q 1681 3103 1420 2742 
Q 1159 2381 1159 1747 
Q 1159 1113 1420 752 
Q 1681 391 2138 391 
Q 2594 391 2855 752 
Q 3116 1113 3116 1747 
z
" transform="scale(0.015625)"/>
       <path id="DejaVuSans-78" d="M 3513 3500 
L 2247 1797 
L 3578 0 
L 2900 0 
L 1881 1375 
L 863 0 
L 184 0 
L 1544 1831 
L 300 3500 
L 978 3500 
L 1906 2253 
L 2834 3500 
L 3513 3500 
z
" transform="scale(0.015625)"/>
       <path id="DejaVuSans-65" d="M 3597 1894 
L 3597 1613 
L 953 1613 
Q 991 1019 1311 708 
Q 1631 397 2203 397 
Q 2534 397 2845 478 
Q 3156 559 3463 722 
L 3463 178 
Q 3153 47 2828 -22 
Q 2503 -91 2169 -91 
Q 1331 -91 842 396 
Q 353 884 353 1716 
Q 353 2575 817 3079 
Q 1281 3584 2069 3584 
Q 2775 3584 3186 3129 
Q 3597 2675 3597 1894 
z
M 3022 2063 
Q 3016 2534 2758 2815 
Q 2500 3097 2075 3097 
Q 1594 3097 1305 2825 
Q 1016 2553 972 2059 
L 3022 2063 
z
" transform="scale(0.015625)"/>
       <path id="DejaVuSans-6c" d="M 603 4863 
L 1178 4863 
L 1178 0 
L 603 0 
L 603 4863 
z
" transform="scale(0.015625)"/>
      </defs>
      <use xlink:href="#DejaVuSans-23"/>
      <use xlink:href="#DejaVuSans-20" transform="translate(83.789062 0)"/>
      <use xlink:href="#DejaVuSans-6f" transform="translate(115.576172 0)"/>
      <use xlink:href="#DejaVuSans-66" transform="translate(176.757812 0)"/>
      <use xlink:href="#DejaVuSans-20" transform="translate(211.962891 0)"/>
      <use xlink:href="#DejaVuSans-70" transform="translate(243.75 0)"/>
      <use xlink:href="#DejaVuSans-69" transform="translate(307.226562 0)"/>
      <use xlink:href="#DejaVuSans-78" transform="translate(335.009766 0)"/>
      <use xlink:href="#DejaVuSans-65" transform="translate(391.064453 0)"/>
      <use xlink:href="#DejaVuSans-6c" transform="translate(452.587891 0)"/>
      <use xlink:href="#DejaVuSans-73" transform="translate(480.371094 0)"/>
     </g>
    </g>
   </g>
   <g id="line2d_13">
    <path d="M 57.6 53.568 
L 58.995 295.488 
L 61.785 295.488 
L 63.18 285.596084 
L 64.575 295.488 
L 68.76 295.488 
L 70.155 279.548317 
L 71.55 295.488 
L 75.735 295.488 
L 77.13 280.527207 
L 78.525 295.488 
L 92.475 295.488 
L 93.87 263.713356 
L 95.265 295.488 
L 120.375 295.488 
L 121.77 238.144416 
L 123.165 295.488 
L 185.94 295.488 
L 187.335 164.077283 
L 188.73 295.488 
L 220.815 295.488 
L 222.21 224.614709 
L 223.605 295.488 
L 226.395 295.488 
L 227.79 285.014449 
L 229.185 295.488 
L 231.975 295.488 
L 233.37 284.103885 
L 234.765 295.488 
L 236.16 295.488 
L 237.555 286.959184 
L 238.95 295.488 
L 241.74 295.488 
L 243.135 283.917446 
L 244.53 295.488 
L 245.925 295.488 
L 247.32 286.38579 
L 248.715 295.488 
L 252.9 295.488 
L 254.295 282.143699 
L 255.69 295.488 
L 259.875 295.488 
L 261.27 280.736994 
L 262.665 295.488 
L 265.455 295.488 
L 266.85 283.141131 
L 268.245 295.488 
L 275.22 295.488 
L 276.615 277.990194 
L 278.01 295.488 
L 280.8 295.488 
L 282.195 282.472285 
L 283.59 295.488 
L 289.17 295.488 
L 290.565 279.298357 
L 291.96 295.488 
L 294.75 295.488 
L 296.145 284.644318 
L 297.54 295.488 
L 301.725 295.488 
L 303.12 282.14267 
L 304.515 295.488 
L 307.305 295.488 
L 308.7 283.767402 
L 310.095 295.488 
L 311.49 295.488 
L 312.885 287.135323 
L 314.28 295.488 
L 317.07 295.488 
L 318.465 284.524832 
L 319.86 295.488 
L 321.255 287.863225 
L 322.65 295.488 
L 325.44 295.488 
L 326.835 286.011538 
L 328.23 295.488 
L 329.625 288.643316 
L 331.02 295.488 
L 332.415 295.488 
L 333.81 286.781672 
L 335.205 295.488 
L 336.6 295.488 
L 337.995 287.22322 
L 339.39 295.488 
L 340.785 289.67062 
L 342.18 295.488 
L 343.575 295.488 
L 344.97 287.643137 
L 346.365 295.488 
L 347.76 289.389073 
L 349.155 295.488 
L 350.55 295.488 
L 351.945 286.768281 
L 353.34 295.488 
L 354.735 295.488 
L 356.13 288.546148 
L 357.525 295.488 
L 358.92 295.488 
L 360.315 285.315224 
L 361.71 295.488 
L 364.5 295.488 
L 365.895 284.865435 
L 367.29 295.488 
L 368.685 295.488 
L 370.08 287.280904 
L 371.475 295.488 
L 374.265 295.488 
L 375.66 284.114185 
L 377.055 295.488 
L 378.45 295.488 
L 379.845 286.410854 
L 381.24 295.488 
L 385.425 295.488 
L 386.82 283.422678 
L 388.215 295.488 
L 389.61 295.488 
L 391.005 286.991802 
L 392.4 295.488 
L 393.795 295.488 
L 395.19 285.024406 
L 396.585 295.488 
L 399.375 295.488 
L 400.77 286.138577 
L 402.165 295.488 
L 403.56 289.365038 
L 404.955 295.488 
L 406.35 289.406583 
L 407.745 292.245745 
L 409.14 292.845578 
L 410.535 292.784118 
L 411.93 293.311847 
L 413.325 292.327463 
L 413.325 292.327463 
" clip-path="url(#p9daa1739d0)" style="fill: none; stroke: #0000ff; stroke-width: 1.5; stroke-linecap: square"/>
   </g>
   <g id="line2d_14">
    <path d="M 57.6 234.514123 
L 61.785 234.514123 
L 63.18 232.020953 
L 68.76 232.020953 
L 70.155 228.003492 
L 75.735 228.003492 
L 77.13 224.232749 
L 92.475 224.232749 
L 93.87 216.224222 
L 120.375 216.224222 
L 121.77 201.771263 
L 185.94 201.771263 
L 187.335 168.650301 
L 220.815 168.650301 
L 222.21 150.787297 
L 226.395 150.787297 
L 227.79 148.147524 
L 231.975 148.147524 
L 233.37 145.278263 
L 236.16 145.278263 
L 237.555 143.128639 
L 241.74 143.128639 
L 243.135 140.212385 
L 245.925 140.212385 
L 247.32 137.918248 
L 252.9 137.918248 
L 254.295 134.55493 
L 259.875 134.55493 
L 261.27 130.837064 
L 265.455 130.837064 
L 266.85 127.72515 
L 275.22 127.72515 
L 276.615 123.314973 
L 280.8 123.314973 
L 282.195 120.034466 
L 289.17 120.034466 
L 290.565 115.954006 
L 294.75 115.954006 
L 296.145 113.220952 
L 301.725 113.220952 
L 303.12 109.857374 
L 307.305 109.857374 
L 308.7 106.903298 
L 311.49 106.903298 
L 312.885 104.798071 
L 317.07 104.798071 
L 318.465 102.03491 
L 319.86 102.03491 
L 321.255 100.113143 
L 325.44 100.113143 
L 326.835 97.724688 
L 328.23 97.724688 
L 329.625 95.999532 
L 332.415 95.999532 
L 333.81 93.805179 
L 336.6 93.805179 
L 337.995 91.722115 
L 339.39 91.722115 
L 340.785 90.255892 
L 343.575 90.255892 
L 344.97 88.278668 
L 346.365 88.278668 
L 347.76 86.741486 
L 350.55 86.741486 
L 351.945 84.543743 
L 354.735 84.543743 
L 356.13 82.794118 
L 358.92 82.794118 
L 360.315 80.230148 
L 364.5 80.230148 
L 365.895 77.552826 
L 368.685 77.552826 
L 370.08 75.484297 
L 374.265 75.484297 
L 375.66 72.617632 
L 378.45 72.617632 
L 379.845 70.329811 
L 385.425 70.329811 
L 386.82 67.288842 
L 389.61 67.288842 
L 391.005 65.147451 
L 393.795 65.147451 
L 395.19 62.510187 
L 399.375 62.510187 
L 400.77 60.153757 
L 402.165 60.153757 
L 403.56 58.610504 
L 404.955 58.610504 
L 406.35 57.077734 
L 407.745 56.260564 
L 413.325 53.568 
L 413.325 53.568 
" clip-path="url(#p9daa1739d0)" style="fill: none; stroke: #0000ff; stroke-width: 1.5; stroke-linecap: square"/>
   </g>
   <g id="line2d_15">
    <path d="M 57.6 53.568 
L 58.995 295.488 
L 63.18 295.488 
L 64.575 279.244654 
L 65.97 295.488 
L 72.945 295.488 
L 74.34 271.040015 
L 75.735 295.488 
L 79.92 295.488 
L 81.315 278.052178 
L 82.71 295.488 
L 88.29 295.488 
L 89.685 271.667033 
L 91.08 295.488 
L 98.055 295.488 
L 99.45 271.43873 
L 100.845 295.488 
L 131.535 295.488 
L 132.93 212.40407 
L 134.325 295.488 
L 191.52 295.488 
L 192.915 144.660875 
L 194.31 295.488 
L 211.05 295.488 
L 212.445 244.455361 
L 213.84 295.488 
L 220.815 295.488 
L 222.21 272.211699 
L 223.605 295.488 
L 225 288.846015 
L 226.395 295.488 
L 227.79 286.692221 
L 229.185 295.488 
L 230.58 288.888822 
L 231.975 295.488 
L 233.37 286.635145 
L 234.765 295.488 
L 236.16 295.488 
L 237.555 286.397873 
L 238.95 295.488 
L 240.345 288.423247 
L 241.74 295.488 
L 243.135 295.488 
L 244.53 285.801432 
L 245.925 295.488 
L 247.32 288.061631 
L 248.715 295.488 
L 250.11 295.488 
L 251.505 285.518091 
L 252.9 295.488 
L 254.295 288.027793 
L 255.69 295.488 
L 257.085 295.488 
L 258.48 285.475285 
L 259.875 295.488 
L 261.27 295.488 
L 262.665 284.847452 
L 264.06 295.488 
L 265.455 287.078298 
L 266.85 295.488 
L 268.245 295.488 
L 269.64 284.58898 
L 271.035 295.488 
L 272.43 287.734669 
L 273.825 295.488 
L 275.22 295.488 
L 276.615 284.922058 
L 278.01 295.488 
L 279.405 295.488 
L 280.8 287.251563 
L 282.195 295.488 
L 283.59 295.488 
L 284.985 284.127075 
L 286.38 295.488 
L 289.17 295.488 
L 290.565 282.764188 
L 291.96 295.488 
L 293.355 295.488 
L 294.75 284.822176 
L 296.145 295.488 
L 298.935 295.488 
L 300.33 280.592863 
L 301.725 295.488 
L 303.12 295.488 
L 304.515 284.117697 
L 305.91 295.488 
L 310.095 295.488 
L 311.49 279.388157 
L 312.885 295.488 
L 314.28 295.488 
L 315.675 282.973329 
L 317.07 295.488 
L 321.255 295.488 
L 322.65 277.907041 
L 324.045 295.488 
L 328.23 295.488 
L 329.625 276.941647 
L 331.02 295.488 
L 335.205 295.488 
L 336.6 280.506841 
L 337.995 295.488 
L 343.575 295.488 
L 344.97 274.024261 
L 346.365 295.488 
L 350.55 295.488 
L 351.945 278.759917 
L 353.34 295.488 
L 358.92 295.488 
L 360.315 273.608831 
L 361.71 295.488 
L 364.5 295.488 
L 365.895 279.906324 
L 367.29 295.488 
L 372.87 295.488 
L 374.265 275.275442 
L 375.66 295.488 
L 379.845 295.488 
L 381.24 277.025223 
L 382.635 295.488 
L 385.425 295.488 
L 386.82 281.008701 
L 388.215 295.488 
L 392.4 295.488 
L 393.795 277.223356 
L 395.19 295.488 
L 397.98 295.488 
L 399.375 282.329597 
L 400.77 295.488 
L 404.955 295.488 
L 406.35 278.768478 
L 407.745 295.488 
L 409.14 287.336769 
L 410.535 295.488 
L 411.93 288.229597 
L 413.325 293.140964 
L 413.325 293.140964 
" clip-path="url(#p9daa1739d0)" style="fill: none; stroke: #008000; stroke-width: 1.5; stroke-linecap: square"/>
   </g>
   <g id="line2d_16">
    <path d="M 57.6 244.13599 
L 63.18 244.13599 
L 64.575 240.68804 
L 72.945 240.68804 
L 74.34 235.498499 
L 79.92 235.498499 
L 81.315 231.797421 
L 88.29 231.797421 
L 89.685 226.74098 
L 98.055 226.74098 
L 99.45 221.636076 
L 131.535 221.636076 
L 132.93 203.999971 
L 191.52 203.999971 
L 192.915 171.984116 
L 211.05 171.984116 
L 212.445 161.151497 
L 220.815 161.151497 
L 222.21 156.210665 
L 223.605 156.210665 
L 225 154.800779 
L 226.395 154.800779 
L 227.79 152.933706 
L 229.185 152.933706 
L 230.58 151.532918 
L 231.975 151.532918 
L 233.37 149.653733 
L 236.16 149.653733 
L 237.555 147.72418 
L 238.95 147.72418 
L 240.345 146.224561 
L 243.135 146.224561 
L 244.53 144.168404 
L 245.925 144.168404 
L 247.32 142.592015 
L 250.11 142.592015 
L 251.505 140.475715 
L 252.9 140.475715 
L 254.295 138.892159 
L 257.085 138.892159 
L 258.48 136.766774 
L 261.27 136.766774 
L 262.665 134.508109 
L 264.06 134.508109 
L 265.455 132.722997 
L 268.245 132.722997 
L 269.64 130.40948 
L 271.035 130.40948 
L 272.43 128.76369 
L 275.22 128.76369 
L 276.615 126.520872 
L 279.405 126.520872 
L 280.8 124.772545 
L 283.59 124.772545 
L 284.985 122.360975 
L 289.17 122.360975 
L 290.565 119.660105 
L 293.355 119.660105 
L 294.75 117.396091 
L 298.935 117.396091 
L 300.33 114.234315 
L 303.12 114.234315 
L 304.515 111.820755 
L 310.095 111.820755 
L 311.49 108.403263 
L 314.28 108.403263 
L 315.675 105.746792 
L 321.255 105.746792 
L 322.65 102.01491 
L 328.23 102.01491 
L 329.625 98.078111 
L 335.205 98.078111 
L 336.6 94.89808 
L 343.575 94.89808 
L 344.97 90.342005 
L 350.55 90.342005 
L 351.945 86.791161 
L 358.92 86.791161 
L 360.315 82.146896 
L 364.5 82.146896 
L 365.895 78.839396 
L 372.87 78.839396 
L 374.265 74.5489 
L 379.845 74.5489 
L 381.24 70.629838 
L 385.425 70.629838 
L 386.82 67.556339 
L 392.4 67.556339 
L 393.795 63.679324 
L 397.98 63.679324 
L 399.375 60.886213 
L 404.955 60.886213 
L 406.35 57.337185 
L 407.745 57.337185 
L 409.14 55.60694 
L 410.535 55.60694 
L 411.93 54.066196 
L 413.325 53.568 
L 413.325 53.568 
" clip-path="url(#p9daa1739d0)" style="fill: none; stroke: #008000; stroke-width: 1.5; stroke-linecap: square"/>
   </g>
   <g id="line2d_17">
    <path d="M 57.6 53.568 
L 58.995 295.488 
L 60.39 295.488 
L 61.785 275.899937 
L 63.18 295.488 
L 65.97 295.488 
L 67.365 267.781797 
L 68.76 295.488 
L 70.155 295.488 
L 71.55 275.066387 
L 72.945 295.488 
L 75.735 295.488 
L 77.13 268.178524 
L 78.525 295.488 
L 79.92 295.488 
L 81.315 274.988309 
L 82.71 295.488 
L 85.5 295.488 
L 86.895 267.246496 
L 88.29 295.488 
L 92.475 295.488 
L 93.87 265.898046 
L 95.265 295.488 
L 96.66 295.488 
L 98.055 273.250868 
L 99.45 295.488 
L 102.24 295.488 
L 103.635 267.60946 
L 105.03 295.488 
L 106.425 295.488 
L 107.82 274.898271 
L 109.215 295.488 
L 112.005 295.488 
L 113.4 270.250793 
L 114.795 295.488 
L 116.19 278.140321 
L 117.585 295.488 
L 120.375 295.488 
L 121.77 273.907156 
L 123.165 295.488 
L 124.56 295.488 
L 125.955 275.041065 
L 127.35 295.488 
L 128.745 280.866767 
L 130.14 295.488 
L 131.535 295.488 
L 132.93 276.715901 
L 134.325 295.488 
L 135.72 281.650373 
L 137.115 295.488 
L 138.51 276.837592 
L 139.905 295.488 
L 141.3 281.312733 
L 142.695 295.488 
L 144.09 295.488 
L 145.485 275.411764 
L 146.88 295.488 
L 149.67 295.488 
L 151.065 270.75655 
L 152.46 295.488 
L 153.855 295.488 
L 155.25 277.117553 
L 156.645 295.488 
L 158.04 295.488 
L 159.435 273.593431 
L 160.83 295.488 
L 162.225 278.884536 
L 163.62 295.488 
L 166.41 295.488 
L 167.805 271.051985 
L 169.2 295.488 
L 170.595 295.488 
L 171.99 276.697612 
L 173.385 295.488 
L 176.175 295.488 
L 177.57 266.329944 
L 178.965 295.488 
L 183.15 295.488 
L 184.545 263.108996 
L 185.94 295.488 
L 190.125 295.488 
L 191.52 263.18215 
L 192.915 295.488 
L 202.68 295.488 
L 204.075 234.74299 
L 205.47 295.488 
L 213.84 295.488 
L 215.235 239.742877 
L 216.63 295.488 
L 240.345 295.488 
L 241.74 165.740564 
L 243.135 295.488 
L 258.48 295.488 
L 259.875 206.84053 
L 261.27 295.488 
L 287.775 295.488 
L 289.17 154.16231 
L 290.565 295.488 
L 301.725 295.488 
L 303.12 229.356918 
L 304.515 295.488 
L 305.91 280.244945 
L 307.305 295.488 
L 308.7 295.488 
L 310.095 275.522905 
L 311.49 295.488 
L 312.885 295.488 
L 314.28 279.21655 
L 315.675 295.488 
L 317.07 295.488 
L 318.465 273.781947 
L 319.86 295.488 
L 321.255 279.253127 
L 322.65 295.488 
L 325.44 295.488 
L 326.835 272.609351 
L 328.23 295.488 
L 329.625 295.488 
L 331.02 271.136395 
L 332.415 295.488 
L 333.81 295.488 
L 335.205 276.31847 
L 336.6 295.488 
L 339.39 295.488 
L 340.785 265.622306 
L 342.18 295.488 
L 344.97 295.488 
L 346.365 271.427609 
L 347.76 295.488 
L 351.945 295.488 
L 353.34 259.599647 
L 354.735 295.488 
L 358.92 295.488 
L 360.315 265.883978 
L 361.71 295.488 
L 365.895 295.488 
L 367.29 256.473661 
L 368.685 295.488 
L 377.055 295.488 
L 378.45 243.949314 
L 379.845 295.488 
L 389.61 295.488 
L 391.005 236.724515 
L 392.4 295.488 
L 407.745 295.488 
L 409.14 208.058853 
L 410.535 295.488 
L 411.93 295.488 
L 413.325 272.793645 
L 413.325 272.793645 
" clip-path="url(#p9daa1739d0)" style="fill: none; stroke: #ff0000; stroke-width: 1.5; stroke-linecap: square"/>
   </g>
   <g id="line2d_18">
    <path d="M 57.6 265.725606 
L 60.39 265.725606 
L 61.785 263.315769 
L 65.97 263.315769 
L 67.365 259.907191 
L 70.155 259.907191 
L 71.55 257.394807 
L 75.735 257.394807 
L 77.13 254.03504 
L 79.92 254.03504 
L 81.315 251.513049 
L 85.5 251.513049 
L 86.895 248.038614 
L 92.475 248.038614 
L 93.87 244.398289 
L 96.66 244.398289 
L 98.055 241.662549 
L 102.24 241.662549 
L 103.635 238.232768 
L 106.425 238.232768 
L 107.82 235.699702 
L 112.005 235.699702 
L 113.4 232.594873 
L 114.795 232.594873 
L 116.19 230.460663 
L 120.375 230.460663 
L 121.77 227.805663 
L 124.56 227.805663 
L 125.955 225.290164 
L 127.35 225.290164 
L 128.745 223.491375 
L 131.535 223.491375 
L 132.93 221.181924 
L 134.325 221.181924 
L 135.72 219.479537 
L 137.115 219.479537 
L 138.51 217.185054 
L 139.905 217.185054 
L 141.3 215.441132 
L 144.09 215.441132 
L 145.485 212.971242 
L 149.67 212.971242 
L 151.065 209.928636 
L 153.855 209.928636 
L 155.25 207.668595 
L 158.04 207.668595 
L 159.435 204.975 
L 160.83 204.975 
L 162.225 202.932347 
L 166.41 202.932347 
L 167.805 199.926086 
L 170.595 199.926086 
L 171.99 197.614386 
L 176.175 197.614386 
L 177.57 194.02719 
L 183.15 194.02719 
L 184.545 190.043737 
L 190.125 190.043737 
L 191.52 186.06929 
L 202.68 186.06929 
L 204.075 178.596088 
L 213.84 178.596088 
L 215.235 171.738003 
L 240.345 171.738003 
L 241.74 155.775728 
L 258.48 155.775728 
L 259.875 144.8698 
L 287.775 144.8698 
L 289.17 127.483089 
L 301.725 127.483089 
L 303.12 119.347273 
L 304.515 119.347273 
L 305.91 117.471981 
L 308.7 117.471981 
L 310.095 115.015754 
L 312.885 115.015754 
L 314.28 113.013945 
L 317.07 113.013945 
L 318.465 110.343544 
L 319.86 110.343544 
L 321.255 108.346234 
L 325.44 108.346234 
L 326.835 105.53158 
L 329.625 105.53158 
L 331.02 102.535701 
L 333.81 102.535701 
L 335.205 100.177354 
L 339.39 100.177354 
L 340.785 96.503107 
L 344.97 96.503107 
L 346.365 93.54306 
L 351.945 93.54306 
L 353.34 89.127864 
L 358.92 89.127864 
L 360.315 85.485802 
L 365.895 85.485802 
L 367.29 80.686036 
L 377.055 80.686036 
L 378.45 74.345455 
L 389.61 74.345455 
L 391.005 67.116023 
L 407.745 67.116023 
L 409.14 56.359986 
L 411.93 56.359986 
L 413.325 53.568 
L 413.325 53.568 
" clip-path="url(#p9daa1739d0)" style="fill: none; stroke: #ff0000; stroke-width: 1.5; stroke-linecap: square"/>
   </g>
   <g id="patch_3">
    <path d="M 57.6 307.584 
L 57.6 41.472 
" style="fill: none; stroke: #000000; stroke-width: 0.8; stroke-linejoin: miter; stroke-linecap: square"/>
   </g>
   <g id="patch_4">
    <path d="M 414.72 307.584 
L 414.72 41.472 
" style="fill: none; stroke: #000000; stroke-width: 0.8; stroke-linejoin: miter; stroke-linecap: square"/>
   </g>
   <g id="patch_5">
    <path d="M 57.6 307.584 
L 414.72 307.584 
" style="fill: none; stroke: #000000; stroke-width: 0.8; stroke-linejoin: miter; stroke-linecap: square"/>
   </g>
   <g id="patch_6">
    <path d="M 57.6 41.472 
L 414.72 41.472 
" style="fill: none; stroke: #000000; stroke-width: 0.8; stroke-linejoin: miter; stroke-linecap: square"/>
   </g>
   <g id="text_15">
    <!-- Histograma ecualizado de colores -->
    <g transform="translate(134.56875 35.472) scale(0.12 -0.12)">
     <defs>
      <path id="DejaVuSans-48" d="M 628 4666 
L 1259 4666 
L 1259 2753 
L 3553 2753 
L 3553 4666 
L 4184 4666 
L 4184 0 
L 3553 0 
L 3553 2222 
L 1259 2222 
L 1259 0 
L 628 0 
L 628 4666 
z
" transform="scale(0.015625)"/>
      <path id="DejaVuSans-74" d="M 1172 4494 
L 1172 3500 
L 2356 3500 
L 2356 3053 
L 1172 3053 
L 1172 1153 
Q 1172 725 1289 603 
Q 1406 481 1766 481 
L 2356 481 
L 2356 0 
L 1766 0 
Q 1100 0 847 248 
Q 594 497 594 1153 
L 594 3053 
L 172 3053 
L 172 3500 
L 594 3500 
L 594 4494 
L 1172 4494 
z
" transform="scale(0.015625)"/>
      <path id="DejaVuSans-67" d="M 2906 1791 
Q 2906 2416 2648 2759 
Q 2391 3103 1925 3103 
Q 1463 3103 1205 2759 
Q 947 2416 947 1791 
Q 947 1169 1205 825 
Q 1463 481 1925 481 
Q 2391 481 2648 825 
Q 2906 1169 2906 1791 
z
M 3481 434 
Q 3481 -459 3084 -895 
Q 2688 -1331 1869 -1331 
Q 1566 -1331 1297 -1286 
Q 1028 -1241 775 -1147 
L 775 -588 
Q 1028 -725 1275 -790 
Q 1522 -856 1778 -856 
Q 2344 -856 2625 -561 
Q 2906 -266 2906 331 
L 2906 616 
Q 2728 306 2450 153 
Q 2172 0 1784 0 
Q 1141 0 747 490 
Q 353 981 353 1791 
Q 353 2603 747 3093 
Q 1141 3584 1784 3584 
Q 2172 3584 2450 3431 
Q 2728 3278 2906 2969 
L 2906 3500 
L 3481 3500 
L 3481 434 
z
" transform="scale(0.015625)"/>
      <path id="DejaVuSans-72" d="M 2631 2963 
Q 2534 3019 2420 3045 
Q 2306 3072 2169 3072 
Q 1681 3072 1420 2755 
Q 1159 2438 1159 1844 
L 1159 0 
L 581 0 
L 581 3500 
L 1159 3500 
L 1159 2956 
Q 1341 3275 1631 3429 
Q 1922 3584 2338 3584 
Q 2397 3584 2469 3576 
Q 2541 3569 2628 3553 
L 2631 2963 
z
" transform="scale(0.015625)"/>
      <path id="DejaVuSans-61" d="M 2194 1759 
Q 1497 1759 1228 1600 
Q 959 1441 959 1056 
Q 959 750 1161 570 
Q 1363 391 1709 391 
Q 2188 391 2477 730 
Q 2766 1069 2766 1631 
L 2766 1759 
L 2194 1759 
z
M 3341 1997 
L 3341 0 
L 2766 0 
L 2766 531 
Q 2569 213 2275 61 
Q 1981 -91 1556 -91 
Q 1019 -91 701 211 
Q 384 513 384 1019 
Q 384 1609 779 1909 
Q 1175 2209 1959 2209 
L 2766 2209 
L 2766 2266 
Q 2766 2663 2505 2880 
Q 2244 3097 1772 3097 
Q 1472 3097 1187 3025 
Q 903 2953 641 2809 
L 641 3341 
Q 956 3463 1253 3523 
Q 1550 3584 1831 3584 
Q 2591 3584 2966 3190 
Q 3341 2797 3341 1997 
z
" transform="scale(0.015625)"/>
      <path id="DejaVuSans-6d" d="M 3328 2828 
Q 3544 3216 3844 3400 
Q 4144 3584 4550 3584 
Q 5097 3584 5394 3201 
Q 5691 2819 5691 2113 
L 5691 0 
L 5113 0 
L 5113 2094 
Q 5113 2597 4934 2840 
Q 4756 3084 4391 3084 
Q 3944 3084 3684 2787 
Q 3425 2491 3425 1978 
L 3425 0 
L 2847 0 
L 2847 2094 
Q 2847 2600 2669 2842 
Q 2491 3084 2119 3084 
Q 1678 3084 1418 2786 
Q 1159 2488 1159 1978 
L 1159 0 
L 581 0 
L 581 3500 
L 1159 3500 
L 1159 2956 
Q 1356 3278 1631 3431 
Q 1906 3584 2284 3584 
Q 2666 3584 2933 3390 
Q 3200 3197 3328 2828 
z
" transform="scale(0.015625)"/>
      <path id="DejaVuSans-63" d="M 3122 3366 
L 3122 2828 
Q 2878 2963 2633 3030 
Q 2388 3097 2138 3097 
Q 1578 3097 1268 2742 
Q 959 2388 959 1747 
Q 959 1106 1268 751 
Q 1578 397 2138 397 
Q 2388 397 2633 464 
Q 2878 531 3122 666 
L 3122 134 
Q 2881 22 2623 -34 
Q 2366 -91 2075 -91 
Q 1284 -91 818 406 
Q 353 903 353 1747 
Q 353 2603 823 3093 
Q 1294 3584 2113 3584 
Q 2378 3584 2631 3529 
Q 2884 3475 3122 3366 
z
" transform="scale(0.015625)"/>
      <path id="DejaVuSans-75" d="M 544 1381 
L 544 3500 
L 1119 3500 
L 1119 1403 
Q 1119 906 1312 657 
Q 1506 409 1894 409 
Q 2359 409 2629 706 
Q 2900 1003 2900 1516 
L 2900 3500 
L 3475 3500 
L 3475 0 
L 2900 0 
L 2900 538 
Q 2691 219 2414 64 
Q 2138 -91 1772 -91 
Q 1169 -91 856 284 
Q 544 659 544 1381 
z
M 1991 3584 
L 1991 3584 
z
" transform="scale(0.015625)"/>
      <path id="DejaVuSans-7a" d="M 353 3500 
L 3084 3500 
L 3084 2975 
L 922 459 
L 3084 459 
L 3084 0 
L 275 0 
L 275 525 
L 2438 3041 
L 353 3041 
L 353 3500 
z
" transform="scale(0.015625)"/>
      <path id="DejaVuSans-64" d="M 2906 2969 
L 2906 4863 
L 3481 4863 
L 3481 0 
L 2906 0 
L 2906 525 
Q 2725 213 2448 61 
Q 2172 -91 1784 -91 
Q 1150 -91 751 415 
Q 353 922 353 1747 
Q 353 2572 751 3078 
Q 1150 3584 1784 3584 
Q 2172 3584 2448 3432 
Q 2725 3281 2906 2969 
z
M 947 1747 
Q 947 1113 1208 752 
Q 1469 391 1925 391 
Q 2381 391 2643 752 
Q 2906 1113 2906 1747 
Q 2906 2381 2643 2742 
Q 2381 3103 1925 3103 
Q 1469 3103 1208 2742 
Q 947 2381 947 1747 
z
" transform="scale(0.015625)"/>
     </defs>
     <use xlink:href="#DejaVuSans-48"/>
     <use xlink:href="#DejaVuSans-69" transform="translate(75.195312 0)"/>
     <use xlink:href="#DejaVuSans-73" transform="translate(102.978516 0)"/>
     <use xlink:href="#DejaVuSans-74" transform="translate(155.078125 0)"/>
     <use xlink:href="#DejaVuSans-6f" transform="translate(194.287109 0)"/>
     <use xlink:href="#DejaVuSans-67" transform="translate(255.46875 0)"/>
     <use xlink:href="#DejaVuSans-72" transform="translate(318.945312 0)"/>
     <use xlink:href="#DejaVuSans-61" transform="translate(360.058594 0)"/>
     <use xlink:href="#DejaVuSans-6d" transform="translate(421.337891 0)"/>
     <use xlink:href="#DejaVuSans-61" transform="translate(518.75 0)"/>
     <use xlink:href="#DejaVuSans-20" transform="translate(580.029297 0)"/>
     <use xlink:href="#DejaVuSans-65" transform="translate(611.816406 0)"/>
     <use xlink:href="#DejaVuSans-63" transform="translate(673.339844 0)"/>
     <use xlink:href="#DejaVuSans-75" transform="translate(728.320312 0)"/>
     <use xlink:href="#DejaVuSans-61" transform="translate(791.699219 0)"/>
     <use xlink:href="#DejaVuSans-6c" transform="translate(852.978516 0)"/>
     <use xlink:href="#DejaVuSans-69" transform="translate(880.761719 0)"/>
     <use xlink:href="#DejaVuSans-7a" transform="translate(908.544922 0)"/>
     <use xlink:href="#DejaVuSans-61" transform="translate(961.035156 0)"/>
     <use xlink:href="#DejaVuSans-64" transform="translate(1022.314453 0)"/>
     <use xlink:href="#DejaVuSans-6f" transform="translate(1085.791016 0)"/>
     <use xlink:href="#DejaVuSans-20" transform="translate(1146.972656 0)"/>
     <use xlink:href="#DejaVuSans-64" transform="translate(1178.759766 0)"/>
     <use xlink:href="#DejaVuSans-65" transform="translate(1242.236328 0)"/>
     <use xlink:href="#DejaVuSans-20" transform="translate(1303.759766 0)"/>
     <use xlink:href="#DejaVuSans-63" transform="translate(1335.546875 0)"/>
     <use xlink:href="#DejaVuSans-6f" transform="translate(1390.527344 0)"/>
     <use xlink:href="#DejaVuSans-6c" transform="translate(1451.708984 0)"/>
     <use xlink:href="#DejaVuSans-6f" transform="translate(1479.492188 0)"/>
     <use xlink:href="#DejaVuSans-72" transform="translate(1540.673828 0)"/>
     <use xlink:href="#DejaVuSans-65" transform="translate(1579.537109 0)"/>
     <use xlink:href="#DejaVuSans-73" transform="translate(1641.060547 0)"/>
    </g>
   </g>
  </g>
 </g>
 <defs>
  <clipPath id="p9daa1739d0">
   <rect x="57.6" y="41.472" width="357.12" height="266.112"/>
  </clipPath>
 </defs>
</svg>
